<svg width="1920" height="1080" viewBox="0 0 1920 1080" fill="none" xmlns="http://www.w3.org/2000/svg">
<g clip-path="url(#clip0_2_391)">
<path fill-rule="evenodd" clip-rule="evenodd" d="M-31.9023 289.614C16.1196 268.04 74.1012 286.82 124.986 324.508C178.039 363.802 216.328 427.013 247.664 496.678C289.958 590.703 368.66 705.881 332.105 784.965C294.928 865.394 188.886 792.038 112.131 789.892C62.3795 788.501 16.8442 800.177 -32.5812 774.77C-97.5582 741.369 -186.191 714.1 -206.152 626.282C-226.241 537.903 -145.246 496.917 -110.845 430.452C-84.8414 380.21 -76.4554 309.629 -31.9023 289.614Z" fill="#0B8EE4"/>
<path fill-rule="evenodd" clip-rule="evenodd" d="M-6.77171 338.228C31.5766 320.732 78.2794 336.847 119.455 368.608C162.386 401.723 193.681 454.575 219.454 512.727C254.239 591.214 318.434 687.597 289.803 752.972C260.685 819.459 174.922 757.578 113.301 755.114C73.3587 753.518 36.9175 762.813 -2.97748 741.268C-55.4254 712.944 -126.804 689.504 -143.61 616.372C-160.523 542.772 -95.8845 509.442 -68.8699 454.53C-48.4493 413.023 -42.3501 354.461 -6.77171 338.228Z" fill="#0099FF"/>
<path fill-rule="evenodd" clip-rule="evenodd" d="M1965.76 392.646C1910.32 431.917 1825.43 435.359 1767.19 405.474C1710.7 376.486 1714.38 299.861 1682.64 247.352C1656.99 204.926 1597.81 177.913 1599.47 128.049C1601.14 78.3232 1665.73 51.1361 1690.7 6.13608C1721.68 -49.6983 1703.6 -133.568 1761.97 -164.79C1818.74 -195.161 1891.98 -162.476 1943.22 -128.943C1986.7 -100.481 1983.93 -39.7694 2014.76 0.67771C2043.78 38.7517 2112.73 51.0039 2116.63 98.5794C2120.51 145.876 2054.98 173.727 2032.52 217.505C2003.03 274.996 2020.3 354.006 1965.76 392.646Z" fill="#0B8EE4"/>
<path fill-rule="evenodd" clip-rule="evenodd" d="M1947.68 347.015C1903.53 378.996 1835.32 380.946 1788.18 355.537C1742.46 330.891 1744.59 267.374 1718.51 223.483C1697.43 188.02 1649.57 164.983 1650.37 123.642C1651.17 82.4156 1702.81 60.5546 1722.4 23.4964C1746.7 -22.4841 1731.26 -92.2414 1777.85 -117.515C1823.16 -142.101 1882.39 -114.209 1923.94 -85.8492C1959.2 -61.7785 1957.63 -11.4517 1982.85 22.4253C2006.59 54.3147 2062.15 65.2125 2065.8 104.715C2069.42 143.985 2017.05 166.387 1999.46 202.459C1976.37 249.829 1991.11 315.547 1947.68 347.015Z" fill="#0099FF"/>
<path fill-rule="evenodd" clip-rule="evenodd" d="M-0.748291 1002.45L79.6081 989.293C159.964 976.133 320.677 949.813 481.39 949.813C642.102 949.813 802.815 976.133 963.528 949.813C1124.24 923.493 1284.95 844.533 1445.67 824.793C1606.38 805.053 1767.09 844.533 1847.45 864.273L1927.8 884.013V1081.41H1847.45C1767.09 1081.41 1606.38 1081.41 1445.67 1081.41C1284.95 1081.41 1124.24 1081.41 963.528 1081.41C802.815 1081.41 642.102 1081.41 481.39 1081.41C320.677 1081.41 159.964 1081.41 79.6081 1081.41H-0.748291V1002.45Z" fill="#0B8EE4"/>
<path fill-rule="evenodd" clip-rule="evenodd" d="M-0.748291 1022.04L79.6081 1012.15C159.964 1002.25 320.677 982.461 481.39 982.461C642.102 982.461 802.815 1002.25 963.528 982.461C1124.24 962.671 1284.95 903.301 1445.67 888.458C1606.38 873.615 1767.09 903.301 1847.45 918.143L1927.8 932.986V1081.41H1847.45C1767.09 1081.41 1606.38 1081.41 1445.67 1081.41C1284.95 1081.41 1124.24 1081.41 963.528 1081.41C802.815 1081.41 642.102 1081.41 481.39 1081.41C320.677 1081.41 159.964 1081.41 79.6081 1081.41H-0.748291V1022.04Z" fill="#0099FF"/>
</g>
<defs>
<clipPath id="clip0_2_391">
<rect width="1920" height="1080" fill="white"/>
</clipPath>
</defs>
</svg>